<svg width="18" height="30" viewBox="0 0 18 30" fill="none" xmlns="http://www.w3.org/2000/svg">
<path d="M14.667 0.333496H4.00033C2.16033 0.333496 0.666992 1.82683 0.666992 3.66683V26.3335C0.666992 28.1735 2.16033 29.6668 4.00033 29.6668H14.667C16.507 29.6668 18.0003 28.1735 18.0003 26.3335V3.66683C18.0003 1.82683 16.507 0.333496 14.667 0.333496ZM9.33366 28.3335C8.22699 28.3335 7.33366 27.4402 7.33366 26.3335C7.33366 25.2268 8.22699 24.3335 9.33366 24.3335C10.4403 24.3335 11.3337 25.2268 11.3337 26.3335C11.3337 27.4402 10.4403 28.3335 9.33366 28.3335ZM15.3337 23.0002H3.33366V4.3335H15.3337V23.0002Z" fill="white"/>
</svg>
